<svg xmlns="http://www.w3.org/2000/svg" width="16" height="16" viewBox="0 0 16 16">
  <path fill="#C5C5C5" fill-rule="evenodd" d="M5 3.25a1.25 1.25 0 1 0 0 2.5 1.25 1.25 0 0 0 0-2.5zM2.5 4.5a2.5 2.5 0 1 1 3.25 2.385v2.23a2.501 2.501 0 1 1-1.5 0V6.885A2.501 2.501 0 0 1 2.5 4.5zM5 10.25a1.25 1.25 0 1 0 0 2.5 1.25 1.25 0 0 0 0-2.5zm6-6a1.25 1.25 0 1 0 0 2.5 1.25 1.25 0 0 0 0-2.5zM9.5 5.5a2.5 2.5 0 1 1 1.25 2.165v.585A3.75 3.75 0 0 1 7 12h-.25v-.75H7a2.5 2.5 0 0 0 2.25-2.5v-.585A2.501 2.501 0 0 1 9.5 5.5z" clip-rule="evenodd"/>
</svg>
