<svg width="13" height="13" viewBox="0 0 61 56" xmlns="http://www.w3.org/2000/svg">
  <g stroke="#D9D5F8" stroke-width="1.4" stroke-linecap="round" fill="none" opacity="0.95">
    <line x1="29.25" y1="6.88" x2="5.50" y2="25.67"/>
    <line x1="29.25" y1="6.88" x2="50.05" y2="18.21"/>
    <line x1="5.5" y1="25.67" x2="11.65" y2="49.42"/>
    <line x1="11.65" y1="49.42" x2="53.70" y2="40.68"/>
    <line x1="53.70" y1="40.68" x2="50.05" y2="18.21"/>

    <line x1="29.05" y1="30.48" x2="29.25" y2="6.88"/>
    <line x1="29.05" y1="30.48" x2="5.50" y2="25.67"/>
    <line x1="29.05" y1="30.48" x2="50.05" y2="18.21"/>
    <line x1="29.05" y1="30.48" x2="11.65" y2="49.42"/>
    <line x1="29.05" y1="30.48" x2="53.70" y2="40.68"/>
  </g>

  <circle cx="29.25" cy="6.88" r="5.5" fill="#3C7BE6"/>
  <circle cx="50.05" cy="18.21" r="4.5" fill="#11B4CF"/>
  <circle cx="5.5" cy="25.67" r="4.2" fill="#5A9CF2"/>
  <circle cx="53.70" cy="40.68" r="5.5" fill="#6A66F0"/>
  <circle cx="11.65" cy="49.42" r="4.8" fill="#A788F2"/>
  <circle cx="29.05" cy="30.48" r="6.2" fill="#7A3FF0"/>
</svg>