<svg xmlns="http://www.w3.org/2000/svg" width="16" height="16" viewBox="0 0 16 16">
  <circle cx="8" cy="2.1" r="1.05" fill="#C8C8C8"/>
  <g fill="none" stroke="#C8C8C8" stroke-width="1.3" stroke-linejoin="round" stroke-linecap="round">
    <line x1="8" y1="3.15" x2="8" y2="4.7"/>
    <path d="M5.1 4.7h5.8a2.9 2.9 0 0 1 2.9 2.9v.5l1 1.7-1 1.7v.5a2.9 2.9 0 0 1-2.9 2.9H5.1a2.9 2.9 0 0 1-2.9-2.9v-.5l-1-1.7 1-1.7v-.5A2.9 2.9 0 0 1 5.1 4.7Z"/>
  </g>
  <g fill="#C8C8C8">
    <rect x="5.5" y="7.6" width="1.5" height="3.5" rx="0.75"/>
    <rect x="9" y="7.6" width="1.5" height="3.5" rx="0.75"/>
  </g>
</svg>
