<svg xmlns="http://www.w3.org/2000/svg" width="16" height="16" viewBox="0 0 16 16">
  <path fill="#6E7681" d="M11 1.75V3h2.25a.75.75 0 0 1 0 1.5H2.75a.75.75 0 0 1 0-1.5H5V1.75C5 .784 5.784 0 6.75 0h2.5C10.216 0 11 .784 11 1.75ZM6.5 1.75V3h3V1.75a.25.25 0 0 0-.25-.25h-2.5a.25.25 0 0 0-.25.25ZM4.005 5.575l.44 7.262A1.75 1.75 0 0 0 6.19 14.5h3.62a1.75 1.75 0 0 0 1.745-1.663l.44-7.262a.75.75 0 0 0-1.49-.09l-.44 7.261a.25.25 0 0 1-.25.238H6.19a.25.25 0 0 1-.25-.238l-.44-7.261a.75.75 0 0 0-1.49.09Z"/>
</svg>
