<svg width="40" height="40" viewBox="0 0 40 40" xmlns="http://www.w3.org/2000/svg">
  <g stroke="#D9D5F8" stroke-width="1.5" stroke-linecap="round" fill="none" opacity="0.95">
    <!-- outer connections -->
    <line x1="19.2" y1="4.9" x2="3.6" y2="18.3"/>
    <line x1="19.2" y1="4.9" x2="32.8" y2="13.0"/>
    <line x1="3.6" y1="18.3" x2="7.6" y2="35.3"/>
    <line x1="7.6" y1="35.3" x2="35.2" y2="29.0"/>
    <line x1="35.2" y1="29.0" x2="32.8" y2="13.0"/>

    <!-- center connections -->
    <line x1="19.1" y1="21.8" x2="19.2" y2="4.9"/>
    <line x1="19.1" y1="21.8" x2="3.6" y2="18.3"/>
    <line x1="19.1" y1="21.8" x2="32.8" y2="13.0"/>
    <line x1="19.1" y1="21.8" x2="7.6" y2="35.3"/>
    <line x1="19.1" y1="21.8" x2="35.2" y2="29.0"/>
  </g>

  <!-- nodes -->
  <circle cx="19.2" cy="4.9" r="4.6" fill="#3C7BE6"/>
  <circle cx="32.8" cy="13.0" r="3.6" fill="#11B4CF"/>
  <circle cx="3.6" cy="18.3" r="3.4" fill="#5A9CF2"/>
  <circle cx="35.2" cy="29.0" r="4.6" fill="#6A66F0"/>
  <circle cx="7.6" cy="35.3" r="3.9" fill="#A788F2"/>
  <circle cx="19.1" cy="21.8" r="5.1" fill="#7A3FF0"/>
</svg>
